<?xml version="1.0" encoding="utf-8"?>
<!-- Generator: Adobe Illustrator 21.1.0, SVG Export Plug-In . SVG Version: 6.00 Build 0)  -->
<svg version="1.1" id="Layer_1" xmlns="http://www.w3.org/2000/svg" xmlns:xlink="http://www.w3.org/1999/xlink" x="0px" y="0px"
	 viewBox="0 0 342.4 261.4" style="enable-background:new 0 0 342.4 261.4;" xml:space="preserve">
<style type="text/css">
	.st0{fill:#FFFFFF;}
</style>
<g>
	<g>
		<path class="st0" d="M314.2,96.2c0-37.8-31.9-68.5-71-68.5c-3.6,0-7.3,0.2-10.9,0.8c-30.4,4.3-50.8,26.2-62.2,43
			c-11.4-16.8-31.8-38.7-62.2-43c-3.6-0.5-7.3-0.8-10.9-0.8c-39.2,0-71,30.7-71,68.5c0,37.8,31.9,68.5,71,68.5c3.6,0,7.3-0.2,11-0.8
			c30.4-4.4,50.8-26.3,62.2-43.1c11.4,16.8,31.8,38.7,62.2,43.1c3.6,0.5,7.3,0.8,11,0.8C282.3,164.7,314.2,134,314.2,96.2
			 M104.4,139.9c-2.5,0.4-5,0.5-7.5,0.5c-25.8,0-46.7-19.9-46.7-44.2c0-24.4,21-44.3,46.8-44.3c2.5,0,5,0.2,7.5,0.5
			c28.7,4.1,46.2,32.4,52.2,43.7C150.6,107.6,133,135.8,104.4,139.9 M183.5,96.2c5.9-11.3,23.5-39.6,52.2-43.7
			c2.5-0.3,5-0.5,7.5-0.5c25.8,0,46.7,19.9,46.7,44.3c0,24.4-21,44.2-46.7,44.2c-2.5,0-5-0.2-7.5-0.5
			C207,135.8,189.4,107.5,183.5,96.2"/>
		<rect x="77.3" y="89.5" class="st0" width="42.7" height="13.7"/>
		<polygon class="st0" points="247.9,103.3 262.3,103.3 262.3,89.5 247.9,89.5 247.9,75.1 234.1,75.1 234.1,89.5 219.7,89.5 
			219.7,103.3 234.1,103.3 234.1,117.7 247.9,117.7 		"/>
		<path class="st0" d="M46,185.1l-12.4,39.7h10l2-8.1h11.4l2.2,8.1h10.4l-12.6-39.7H46z M47.5,209l3.6-14.5L55,209H47.5z"/>
		<path class="st0" d="M107.1,198.3c0-7.6-4.1-13.3-15.1-13.3H76v39.7h9.8v-12.6h5l6,12.6h11.6l-7.7-14.5
			C104.9,207.9,107.1,203.8,107.1,198.3 M91,204.3h-5.2v-11.2h5c4.6,0,5.8,1.8,5.8,5.3C96.6,202.8,94.4,204.3,91,204.3"/>
		<path class="st0" d="M128,185.1h-13v39.7h13c16.8,0,19.7-10.8,19.7-20.2C147.8,192.1,142.9,185.1,128,185.1 M128.6,216.6h-3.7
			v-23.5h2.9c8.8,0,9.6,4.1,9.6,11.9C137.3,211.7,136.7,216.6,128.6,216.6"/>
		<path class="st0" d="M176.9,209.3c0,6-1.7,8-6.1,8c-3.7,0-6-1.5-6-8.1v-24.2h-9.8v26c0,12,8.7,14.3,15.4,14.3c7,0,16-2.5,16-14.2
			v-26.1h-9.4L176.9,209.3L176.9,209.3z"/>
		<polygon class="st0" points="195.1,193.2 205.3,193.2 205.3,216.6 195.1,216.6 195.1,224.8 225.5,224.8 225.5,216.6 215.2,216.6 
			215.2,193.2 225.5,193.2 225.5,185.1 195.1,185.1 		"/>
		<polygon class="st0" points="257.2,208.9 244.3,185.1 233.6,185.1 233.6,224.8 242.9,224.8 242.8,199.4 256.4,224.8 266.3,224.8 
			266.3,185.1 257.2,185.1 		"/>
		<path class="st0" d="M289.5,184.6c-12,0-16.6,8.8-16.6,20.8c0,13.1,5.3,20,16.7,20c12.8,0,17-9,17-20.4
			C306.5,189.8,300.7,184.6,289.5,184.6 M289.5,217.4c-5.7,0-6.2-4-6.2-12c0-9.7,0.9-12.8,6.2-12.8c5.8,0,6.6,2.7,6.6,12.4
			C296,214.1,295.2,217.4,289.5,217.4"/>
		<g>
			<path class="st0" d="M300.7,39.4c0-3.5,2.8-6.4,6.2-6.4c3.5,0,6.3,2.9,6.3,6.4c0,3.7-2.8,6.4-6.3,6.4
				C303.5,45.8,300.7,42.9,300.7,39.4z M312.1,39.4c0-2.9-2.2-5.4-5.2-5.4c-3,0-5.1,2.2-5.1,5.4c0,3.3,2.4,5.4,5.1,5.4
				C309.9,44.8,312.1,42.7,312.1,39.4z M303.9,35.4h3.1c2.4,0,3.3,1,3.3,2.7c0,1.1-0.5,1.9-1.5,2.3l1.5,3h-2.2l-1.1-2.7h-1.1v2.7h-2
				L303.9,35.4L303.9,35.4z M306.8,39.3c0.9,0,1.4-0.3,1.4-1.3c0-0.9-0.3-1.2-1.4-1.2h-1v2.6H306.8z"/>
		</g>
	</g>
</g>
</svg>
